<?xml version="1.0" encoding="utf-8"?>
<!-- Generator: Adobe Illustrator 23.0.3, SVG Export Plug-In . SVG Version: 6.00 Build 0)  -->
<svg version="1.1" id="레이어_1" xmlns="http://www.w3.org/2000/svg" xmlns:xlink="http://www.w3.org/1999/xlink" x="0px"
	 y="0px" viewBox="0 0 615.36 107.03" style="enable-background:new 0 0 615.36 107.03;" xml:space="preserve">
<style type="text/css">
	.st0{filter:url(#Adobe_OpacityMaskFilter);}
	.st1{fill:#FFFFFF;}
	.st2{mask:url(#mask-2_21_);}
	.st3{filter:url(#Adobe_OpacityMaskFilter_1_);}
	.st4{mask:url(#mask-2_20_);}
	.st5{filter:url(#Adobe_OpacityMaskFilter_2_);}
	.st6{mask:url(#mask-2_19_);}
	.st7{filter:url(#Adobe_OpacityMaskFilter_3_);}
	.st8{mask:url(#mask-2_18_);}
	.st9{filter:url(#Adobe_OpacityMaskFilter_4_);}
	.st10{mask:url(#mask-2_17_);}
	.st11{filter:url(#Adobe_OpacityMaskFilter_5_);}
	.st12{mask:url(#mask-2_16_);}
	.st13{filter:url(#Adobe_OpacityMaskFilter_6_);}
	.st14{mask:url(#mask-2_15_);}
	.st15{filter:url(#Adobe_OpacityMaskFilter_7_);}
	.st16{mask:url(#mask-2_14_);}
	.st17{filter:url(#Adobe_OpacityMaskFilter_8_);}
	.st18{mask:url(#mask-2_4_);}
	.st19{filter:url(#Adobe_OpacityMaskFilter_9_);}
	.st20{mask:url(#mask-2_3_);}
	.st21{filter:url(#Adobe_OpacityMaskFilter_10_);}
	.st22{mask:url(#mask-2_2_);}
	.st23{filter:url(#Adobe_OpacityMaskFilter_11_);}
	.st24{mask:url(#mask-2_1_);}
	.st25{fill:#2399E2;}
	.st26{fill:#3F47FF;}
	.st27{fill:#A9DF85;}
	.st28{fill:#FFE900;}
</style>
<g>
	<g>
		<g id="logo-activity-0-text">
			<defs>
				<filter id="Adobe_OpacityMaskFilter" filterUnits="userSpaceOnUse" x="289.35" y="40.6" width="31.48" height="44.74">
					<feColorMatrix  type="matrix" values="1 0 0 0 0  0 1 0 0 0  0 0 1 0 0  0 0 0 1 0"/>
				</filter>
			</defs>
			<mask maskUnits="userSpaceOnUse" x="289.35" y="40.6" width="31.48" height="44.74" id="mask-2_21_">
				<g class="st0">
					<polygon id="path-1_21_" class="st1" points="167.04,85.34 652.92,85.34 652.92,25.38 167.04,25.38 					"/>
				</g>
			</mask>
			<path id="Fill-7_1_" class="st2" d="M305.25,63.07c-4,0-7.16-3-7.16-7.4c0-4.35,3.19-7.4,7.18-7.4c4.02,0,7.18,3.02,7.18,7.37
				C312.46,60.04,309.27,63.07,305.25,63.07z M312.19,41.06v3.54c-2.99-3.59-7.08-4-8.88-4c-8.53,0-13.96,7.56-13.96,15.07
				c0,8.29,5.72,14.93,14.26,14.93c2.13,0,5.89-0.51,8.5-3.94h0.11v3.38c0,5.48-3.78,7.8-7.94,7.8c-3.99,0-6.22-2.53-6.79-5.25
				l-7.38,4.22c1.87,4.59,6.96,8.53,14.52,8.53c9.37,0,16.2-5.45,16.2-12.88V48.82v-5.74v-2.02H312.19z"/>
			<g id="Clip-4">
			</g>
			<defs>
				<filter id="Adobe_OpacityMaskFilter_1_" filterUnits="userSpaceOnUse" x="167.73" y="25.38" width="10.72" height="45.2">
					<feColorMatrix  type="matrix" values="1 0 0 0 0  0 1 0 0 0  0 0 1 0 0  0 0 0 1 0"/>
				</filter>
			</defs>
			<mask maskUnits="userSpaceOnUse" x="167.73" y="25.38" width="10.72" height="45.2" id="mask-2_20_">
				<g class="st3">
					<polygon id="path-1_20_" class="st1" points="61.32,85.34 547.2,85.34 547.2,25.38 61.32,25.38 					"/>
				</g>
			</mask>
			<path id="Fill-3" class="st4" d="M168.78,70.57h8.64V41.06h-8.64V70.57z M173.02,25.38c3.02,0,5.43,2.4,5.43,5.37
				c0,2.94-2.4,5.35-5.43,5.35c-2.89,0-5.29-2.4-5.29-5.35C167.73,27.78,170.13,25.38,173.02,25.38z"/>
			<defs>
				<filter id="Adobe_OpacityMaskFilter_2_" filterUnits="userSpaceOnUse" x="255.62" y="38.88" width="27.65" height="31.69">
					<feColorMatrix  type="matrix" values="1 0 0 0 0  0 1 0 0 0  0 0 1 0 0  0 0 0 1 0"/>
				</filter>
			</defs>
			<mask maskUnits="userSpaceOnUse" x="255.62" y="38.88" width="27.65" height="31.69" id="mask-2_19_">
				<g class="st5">
					<polygon id="path-1_19_" class="st1" points="93.84,85.34 579.72,85.34 579.72,25.38 93.84,25.38 					"/>
				</g>
			</mask>
			<path id="Fill-5" class="st6" d="M274.66,54.18c0-3.29-1.57-5.72-5.13-5.72c-3.64,0-5.32,2.7-5.32,5.72v16.39h-8.59V43.85
				l8.53-4.97v6.01h0.08c2.27-3.97,7.21-4.43,8.34-4.43c7.51,0,10.69,5.67,10.69,11.74v18.36h-8.61V54.18z"/>
			<defs>
				<filter id="Adobe_OpacityMaskFilter_3_" filterUnits="userSpaceOnUse" x="186.31" y="25.38" width="27.65" height="45.2">
					<feColorMatrix  type="matrix" values="1 0 0 0 0  0 1 0 0 0  0 0 1 0 0  0 0 0 1 0"/>
				</filter>
			</defs>
			<mask maskUnits="userSpaceOnUse" x="186.31" y="25.38" width="27.65" height="45.2" id="mask-2_18_">
				<g class="st7">
					<polygon id="path-1_18_" class="st1" points="24.53,85.34 510.41,85.34 510.41,25.38 24.53,25.38 					"/>
				</g>
			</mask>
			<path id="Fill-5_2_" class="st8" d="M205.34,54.18c0-3.29-1.57-5.72-5.13-5.72c-3.64,0-5.32,2.7-5.32,5.72v16.39h-8.59v-45.2
				h8.53V44.9h0.08c2.27-3.97,7.21-4.43,8.34-4.43c7.51,0,10.69,5.67,10.69,11.74v18.36h-8.61V54.18z"/>
			<defs>
				<filter id="Adobe_OpacityMaskFilter_4_" filterUnits="userSpaceOnUse" x="533.74" y="41.06" width="27.65" height="30.1">
					<feColorMatrix  type="matrix" values="1 0 0 0 0  0 1 0 0 0  0 0 1 0 0  0 0 0 1 0"/>
				</filter>
			</defs>
			<mask maskUnits="userSpaceOnUse" x="533.74" y="41.06" width="27.65" height="30.1" id="mask-2_17_">
				<g class="st9">
					<polygon id="path-1_17_" class="st1" points="129.48,85.34 615.36,85.34 615.36,25.38 129.48,25.38 					"/>
				</g>
			</mask>
			<path id="Fill-9" class="st10" d="M542.36,57.51c0,3.29,1.54,5.67,5.13,5.67c3.62,0,5.29-2.62,5.29-5.67V41.06h8.61v29.51h-8.5
				V66.9h-0.08c-2.94,4.32-7.4,4.27-8.24,4.27c-7.34,0-10.83-5.51-10.83-11.58V41.06h8.61V57.51z"/>
			<defs>
				<filter id="Adobe_OpacityMaskFilter_5_" filterUnits="userSpaceOnUse" x="482.53" y="31.88" width="21.63" height="39.1">
					<feColorMatrix  type="matrix" values="1 0 0 0 0  0 1 0 0 0  0 0 1 0 0  0 0 0 1 0"/>
				</filter>
			</defs>
			<mask maskUnits="userSpaceOnUse" x="482.53" y="31.88" width="21.63" height="39.1" id="mask-2_16_">
				<g class="st11">
					<polygon id="path-1_16_" class="st1" points="129.48,85.34 615.36,85.34 615.36,25.38 129.48,25.38 					"/>
				</g>
			</mask>
			<path id="Fill-10" class="st12" d="M496.86,31.88l-8.48,4.85v4.33h-5.86v7.45h5.72v11.64c0,4.86,1.54,10.83,10.69,10.83
				c0.97,0,3.16-0.05,5.13-0.68v-7.02c-1.54,0.16-1.78,0.22-3.02,0.22c-2.92,0-4.18-1.48-4.18-3.78v-11.2h7.29v-7.45h-7.29V31.88z"
				/>
			<defs>
				<filter id="Adobe_OpacityMaskFilter_6_" filterUnits="userSpaceOnUse" x="414.3" y="40.33" width="30.37" height="30.89">
					<feColorMatrix  type="matrix" values="1 0 0 0 0  0 1 0 0 0  0 0 1 0 0  0 0 0 1 0"/>
				</filter>
			</defs>
			<mask maskUnits="userSpaceOnUse" x="414.3" y="40.33" width="30.37" height="30.89" id="mask-2_15_">
				<g class="st13">
					<polygon id="path-1_15_" class="st1" points="129.48,85.34 615.36,85.34 615.36,25.38 129.48,25.38 					"/>
				</g>
			</mask>
			<path id="Fill-11" class="st14" d="M429.72,47.33c4.35,0,6.16,3.02,6.29,5.16h-12.69C423.61,50.54,425.86,47.33,429.72,47.33z
				 M436.6,60.12c-0.99,2.37-3.72,3.89-6.24,3.89c-3.59,0-6.72-2.13-7.26-5.8h21.44c0.13-1.03,0.13-2.08,0.13-3.1
				c0-8.75-5.94-14.77-14.74-14.77c-8.48,0-15.63,6.89-15.63,15.44c0,9.15,7.26,15.44,16.2,15.44c5.34,0,10.33-2.56,12.65-7.35
				L436.6,60.12z"/>
			<defs>
				<filter id="Adobe_OpacityMaskFilter_7_" filterUnits="userSpaceOnUse" x="448.99" y="40.36" width="30" height="30.86">
					<feColorMatrix  type="matrix" values="1 0 0 0 0  0 1 0 0 0  0 0 1 0 0  0 0 0 1 0"/>
				</filter>
			</defs>
			<mask maskUnits="userSpaceOnUse" x="448.99" y="40.36" width="30" height="30.86" id="mask-2_14_">
				<g class="st15">
					<polygon id="path-1_14_" class="st1" points="129.48,85.34 615.36,85.34 615.36,25.38 129.48,25.38 					"/>
				</g>
			</mask>
			<path id="Fill-12" class="st16" d="M464.98,63.26c-4.24,0-7.1-3.16-7.1-7.51c0-4.67,3.24-7.45,7.07-7.45
				c3.69,0,5.96,2.29,6.64,4.5l7.29-4.17c-2.2-5.51-8.19-8.27-13.79-8.27c-9.07,0-16.09,6.78-16.09,15.5
				c0,8.8,6.62,15.36,15.9,15.36c5.76,0,11.67-2.79,14.1-8.38l-7.22-4.13C470.94,60.94,468.78,63.26,464.98,63.26"/>
			<defs>
				<filter id="Adobe_OpacityMaskFilter_8_" filterUnits="userSpaceOnUse" x="378.23" y="38.88" width="31.72" height="46.27">
					<feColorMatrix  type="matrix" values="1 0 0 0 0  0 1 0 0 0  0 0 1 0 0  0 0 0 1 0"/>
				</filter>
			</defs>
			<mask maskUnits="userSpaceOnUse" x="378.23" y="38.88" width="31.72" height="46.27" id="mask-2_4_">
				<g class="st17">
					<polygon id="path-1_4_" class="st1" points="129.48,85.34 615.36,85.34 615.36,25.38 129.48,25.38 					"/>
				</g>
			</mask>
			<path id="Fill-13" class="st18" d="M393.91,63.31c-4.02,0-7.29-3.05-7.29-7.53c0-4.45,3.24-7.51,7.26-7.51
				c4.05,0,7.32,3.05,7.32,7.51C401.2,60.26,397.96,63.31,393.91,63.31 M395.91,40.47c-2.02,0-6.18,0.43-9.04,4.24h-0.11v-3.64
				v-2.18l-8.53,4.97v3.48v23.25v14.58h8.61V67.31h0.11c2.75,3.37,6.62,3.83,8.72,3.83c8.61,0,14.28-7.72,14.28-15.36
				C409.95,48.3,404.61,40.47,395.91,40.47"/>
			<defs>
				<filter id="Adobe_OpacityMaskFilter_9_" filterUnits="userSpaceOnUse" x="569.38" y="39.22" width="45.98" height="31.35">
					<feColorMatrix  type="matrix" values="1 0 0 0 0  0 1 0 0 0  0 0 1 0 0  0 0 0 1 0"/>
				</filter>
			</defs>
			<mask maskUnits="userSpaceOnUse" x="569.38" y="39.22" width="45.98" height="31.35" id="mask-2_3_">
				<g class="st19">
					<polygon id="path-1_3_" class="st1" points="129.48,85.34 615.36,85.34 615.36,25.38 129.48,25.38 					"/>
				</g>
			</mask>
			<path id="Fill-14" class="st20" d="M605,40.39c-4.27,0-7.05,1.59-9.83,4.7c-1.67-3.24-5.08-4.7-8.61-4.7
				c-3.35,0-6.91,1.57-8.64,4.54h-0.08l0-5.7l-8.45,4.77v26.58h8.59V54.18c0-3.37,1.75-5.72,5.29-5.72c3.54,0,4.81,2.54,4.81,5.72
				v16.39h8.59v-16.5c0-3.35,1.81-5.62,5.29-5.62c3.54,0,4.81,2.4,4.81,5.62v16.5h8.61V52.13C615.36,45.41,612.23,40.39,605,40.39"
				/>
			<defs>
				<filter id="Adobe_OpacityMaskFilter_10_" filterUnits="userSpaceOnUse" x="510.63" y="40.2" width="18.23" height="30.37">
					<feColorMatrix  type="matrix" values="1 0 0 0 0  0 1 0 0 0  0 0 1 0 0  0 0 0 1 0"/>
				</filter>
			</defs>
			<mask maskUnits="userSpaceOnUse" x="510.63" y="40.2" width="18.23" height="30.37" id="mask-2_2_">
				<g class="st21">
					<polygon id="path-1_2_" class="st1" points="129.48,85.34 615.36,85.34 615.36,25.38 129.48,25.38 					"/>
				</g>
			</mask>
			<path id="Fill-15" class="st22" d="M526.54,40.74c-3.05,0-6.02,1.24-7.64,4.62h-0.08V40.2l-8.19,4.62v2.94v22.81h8.45V57.64
				c0-5.48,2.89-8.37,7.02-8.37c0.38,0,1.62,0,2.75,0.22v-8.45C528.24,40.87,527.18,40.74,526.54,40.74"/>
			<defs>
				<filter id="Adobe_OpacityMaskFilter_11_" filterUnits="userSpaceOnUse" x="339.11" y="26.59" width="32.64" height="44.63">
					<feColorMatrix  type="matrix" values="1 0 0 0 0  0 1 0 0 0  0 0 1 0 0  0 0 0 1 0"/>
				</filter>
			</defs>
			<mask maskUnits="userSpaceOnUse" x="339.11" y="26.59" width="32.64" height="44.63" id="mask-2_1_">
				<g class="st23">
					<polygon id="path-1_1_" class="st1" points="129.48,85.34 615.36,85.34 615.36,25.38 129.48,25.38 					"/>
				</g>
			</mask>
			<path id="Fill-16" class="st24" d="M359.49,45l-6.02-1.11c-3.16-0.59-4.48-2.4-4.48-4.48c0-2.51,2.65-4.78,6.32-4.78
				c4.43,0,6.86,2.48,7.57,5.83l7.67-4.39c-1.56-4.89-6.4-9.48-15.17-9.48c-8.32,0-15.31,5.78-15.31,13.5
				c0,6.59,4.54,11.07,11.53,12.45l6.13,1.21c3.02,0.59,4.91,2.38,4.91,4.54c0,2.67-2.38,4.89-6.51,4.89
				c-4.71,0-8.51-2.57-9.26-7.22l-7.77,4.45c2.07,6.65,7.52,10.81,16.73,10.81c10.23,0,15.9-6.78,15.9-13.47
				C371.75,51.62,367.51,46.49,359.49,45"/>
			<path d="M251.15,54.83c0-7.32-4.59-13.08-11.47-14.81c-0.17-0.04-0.33-0.08-0.5-0.12c-0.27-0.06-0.55-0.12-0.83-0.17
				c-0.41-0.07-0.83-0.13-1.24-0.17c-0.1-0.01-0.2-0.02-0.31-0.03c-0.49-0.04-0.97-0.07-1.46-0.07c-0.02,0-0.03,0-0.05,0
				c-0.02,0-0.04,0-0.05,0c-5.07,0-10.24,2.16-13.07,6.48c-1.84,2.52-2.91,5.62-2.91,9.02c0,7.32,4.59,13.08,11.47,14.81
				c0.17,0.04,0.33,0.08,0.5,0.12c0.27,0.06,0.55,0.12,0.83,0.17c0.41,0.07,0.83,0.13,1.24,0.17c0.1,0.01,0.2,0.02,0.31,0.03
				c0.49,0.04,0.97,0.07,1.46,0.07c0.02,0,0.03,0,0.05,0c0.02,0,0.04,0,0.05,0c5.07,0,10.24-2.16,13.07-6.48
				C250.08,61.32,251.15,58.23,251.15,54.83z M235.25,62.36c-4.24,0-7.1-3.16-7.1-7.51c0-4.05,2.44-6.68,5.59-7.3
				c0.45-0.08,0.93-0.12,1.44-0.12c4.24,0,7.1,3.16,7.1,7.51c0,4.05-2.44,6.68-5.59,7.3C236.24,62.32,235.76,62.36,235.25,62.36z"/>
			<g>
				<path d="M151.71,25.38v17.12v4.54c0,8.51-4.59,15.04-13.12,15.04c-0.03,0-0.05,0-0.08,0v9.18c0.03,0,0.05,0,0.08,0
					c13.58,0,21.57-9.37,21.57-24.43V25.38H151.71z"/>
			</g>
		</g>
		<g>
			<polygon id="Fill-1_1_" class="st25" points="61.88,71.45 123.76,107.18 92.82,53.59 			"/>
			<path id="Combined-Shape" class="st26" d="M61.74,0l31.05,53.68L61.95,71.64h-0.21v-0.18l-11.29-6.54L30.87,53.59L61.74,0z"/>
			<polygon id="Fill-4" class="st27" points="0,107.18 39.23,84.53 61.88,71.45 50.55,64.91 30.94,53.59 			"/>
			<path id="Combined-Shape_1_" class="st28" d="M61.74,107.03H0l39.16-22.57l22.58-13v0.18h0.28l-0.07-0.17l61.81,35.56H61.74z"/>
		</g>
	</g>
</g>
</svg>
